<svg width="96" height="112" viewBox="0 0 96 112" fill="none" xmlns="http://www.w3.org/2000/svg">
<path d="M47.5859 9.00062C62.2459 9.00062 69.3298 0 69.3298 0L95.0208 18.9917C95.0208 18.9917 98.859 84.6154 47.5859 112C-3.68711 84.6154 0.151019 18.9917 0.151019 18.9917L25.842 0C25.842 0 32.926 9.00062 47.5859 9.00062Z" fill="#22396B"/>
<path fill-rule="evenodd" clip-rule="evenodd" d="M69.6388 6.10692L90.3179 21.3932C90.5893 54.3361 77.1068 89.6035 47.5 106.653C17.8953 89.6045 4.40656 54.3289 4.68266 21.3932L25.3612 6.10692C31.5331 11.171 39.5168 13.7026 47.5 13.7026C61.5095 13.7026 69.6388 6.10692 69.6388 6.10692ZM69.2439 0C69.2439 0 62.1599 9.00062 47.5 9.00062C32.84 9.00062 25.7561 0 25.7561 0L0.065082 18.9917C0.065082 18.9917 -3.77305 84.6154 47.5 112C98.773 84.6154 94.9349 18.9917 94.9349 18.9917L69.2439 0ZM47.4009 85.6562L48.057 87.5487L50.0421 87.6062L48.4539 88.8083L49.0267 90.7409L47.3953 89.5881L45.7541 90.7275L46.3315 88.8083L44.752 87.5919L46.7418 87.5523L47.4009 85.6562ZM60.5414 86.778L59.8843 84.8829L59.2251 86.778L57.2302 86.8124L58.8148 88.0345L58.2452 89.9614L59.8786 88.8189L61.5219 89.9676L60.9388 88.0412L62.5368 86.8242L60.5414 86.778ZM35.1777 84.8846L35.8235 86.7842L37.8158 86.8372L36.2338 88.0397L36.807 89.9692L35.1643 88.8206L33.5175 89.9564L34.1006 88.0397L32.5185 86.8182L34.516 86.7755L35.1777 84.8846ZM41.6753 92.6656L41.0296 90.7654L40.3679 92.6563L38.3709 92.699L39.9519 93.9211L39.3694 95.8372L41.0167 94.7014L42.6589 95.85L42.0856 93.9211L43.6677 92.718L41.6753 92.6656ZM53.9851 90.7654L54.6309 92.6651L56.6232 92.718L55.0412 93.9206L55.614 95.85L53.9718 94.7009L52.3244 95.8372L52.9075 93.9206L51.3254 92.699L53.3229 92.6563L53.9851 90.7654ZM48.1544 98.545L47.5107 96.6448L46.8469 98.5368L44.8525 98.5805L46.4335 99.8016L45.85 101.717L47.4958 100.581L49.1375 101.729L48.5647 99.8016L50.1472 98.598L48.1544 98.545ZM47.5327 72.8716L48.1764 74.7795L50.1791 74.815L48.5729 76.0299L49.143 77.9563L47.5271 76.8097L45.8849 77.9512L46.4618 76.0273L44.8689 74.8011L46.8669 74.7713L47.5327 72.8716ZM37.5893 74.7795L36.9456 72.8716L36.2798 74.7713L34.2818 74.8011L35.8746 76.0273L35.2977 77.9512L36.9399 76.8097L38.5559 77.9563L37.9862 76.0299L39.5919 74.815L37.5893 74.7795ZM58.126 72.8716L58.7626 74.7801L60.7677 74.815L59.1667 76.0299L59.7271 77.9563L58.1163 76.8102L56.4705 77.9512L57.0499 76.0273L55.4561 74.8011L57.452 74.7713L58.126 72.8716ZM27.0111 74.5156L26.3535 72.6149L25.6964 74.5207L23.6979 74.5469L25.2871 75.7654L24.7139 77.6918L26.3453 76.5483L27.9875 77.6995L27.4131 75.7778L28.9988 74.5469L27.0111 74.5156ZM68.7108 72.6149L69.3633 74.5151L71.3541 74.5613L69.7535 75.7701L70.3391 77.6995L68.7026 76.5555L67.0594 77.6882L67.6393 75.7742L66.0465 74.5464L68.0548 74.5151L68.7108 72.6149ZM31.1926 80.6409L30.5355 78.7489L29.882 80.6491L27.881 80.6794L29.4682 81.9077L28.8954 83.8187L30.5355 82.6834L32.1705 83.8336L31.5973 81.9108L33.1921 80.6861L31.1926 80.6409ZM64.4214 78.7484L65.0728 80.648L67.0672 80.701L65.4733 81.9051L66.0502 83.833L64.408 82.6833L62.7638 83.8207L63.3504 81.9051L61.7684 80.6835L63.7612 80.6398L64.4214 78.7484ZM54.2923 81.4188L53.6445 79.5181L52.9843 81.4095L50.9879 81.4532L52.5678 82.6748L51.9858 84.5904L53.6311 83.4536L55.2769 84.6027L54.7031 82.6748L56.2857 81.4707L54.2923 81.4188ZM41.8428 79.2635L42.487 81.1617L44.4773 81.2053L42.8845 82.4341L43.4624 84.3482L41.8361 83.1964L40.1924 84.3415L40.7713 82.4233L39.1826 81.2017L41.1801 81.1617L41.8428 79.2635ZM32.8467 68.1147L32.1809 66.2227L31.5274 68.1162L29.5284 68.1491L31.1213 69.3764L30.5464 71.2945L32.1809 70.1644L33.8231 71.3074L33.2473 69.3836L34.8406 68.1553L32.8467 68.1147ZM62.7653 66.4792L63.4141 68.3774L65.4106 68.4298L63.8167 69.6395L64.3951 71.5639L62.7473 70.4168L61.1051 71.5546L61.6917 69.6395L60.1045 68.4169L62.1 68.3666L62.7653 66.4792ZM23.0827 68.126L22.4215 66.2227L21.7629 68.126L19.7716 68.1604L21.3603 69.3794L20.7711 71.3069L22.4179 70.1644L24.0565 71.3074L23.4853 69.3908L25.0704 68.1784L23.0827 68.126ZM72.5342 66.2227L73.1784 68.1137L75.1744 68.1645L73.5795 69.3887L74.1584 71.3074L72.526 70.1587L70.8802 71.3033L71.4581 69.382L69.8658 68.1486L71.8591 68.1137L72.5342 66.2227ZM43.1175 68.6418L42.4784 66.7354L41.8084 68.6387L39.8141 68.6716L41.3992 69.8978L40.831 71.8155L42.4619 70.6648L44.0913 71.8201L43.5154 69.9076L45.1067 68.6885L43.1175 68.6418ZM52.4948 66.736L53.1385 68.6403L55.1272 68.6839L53.538 69.9035L54.1216 71.8206L52.4768 70.6674L50.8367 71.8206L51.4135 69.8942L49.832 68.6773L51.8213 68.6341L52.4948 66.736ZM76.5997 61.7288L75.9442 59.8317L75.2881 61.7288L73.2994 61.7591L74.8743 62.9889L74.3092 64.9112L75.9442 63.7667L77.572 64.9163L77.0059 62.9961L78.6013 61.7771L76.5997 61.7288ZM18.9859 59.832L19.6399 61.7291L21.642 61.7774L20.0476 62.9964L20.6111 64.9166L18.9859 63.7669L17.3509 64.9115L17.9149 62.9892L16.339 61.7594L18.3277 61.7291L18.9859 59.832ZM67.1111 61.7411L66.471 59.8352L65.8047 61.7344L63.8113 61.777L65.3882 62.9945L64.8144 64.9199L66.4525 63.7666L68.0978 64.9199L67.5152 63.0027L69.105 61.7837L67.1111 61.7411ZM28.476 59.83L29.1341 61.7369L31.1341 61.778L29.5459 62.9924L30.1038 64.9147L28.476 63.7589L26.8343 64.9049L27.4178 62.9924L25.8348 61.7667L27.8251 61.7302L28.476 59.83ZM38.6282 61.7369L37.9695 59.83L37.3186 61.7308L35.3284 61.7667L36.9114 62.9924L36.3279 64.9049L37.9695 63.7589L39.5979 64.9147L39.04 62.9924L40.6277 61.778L38.6282 61.7369ZM56.9677 59.8361L57.6232 61.7424L59.6084 61.7881L58.0202 63.0051L58.5945 64.9207L56.9579 63.7736L55.3214 64.9192L55.8952 63.0051L54.3188 61.7743L56.308 61.7321L56.9677 59.8361ZM48.1244 61.7411L47.4827 59.8352L46.8174 61.7339L44.823 61.777L46.3994 62.9945L45.8267 64.9199L47.4647 63.7666L49.1085 64.9199L48.528 63.0027L50.1172 61.7837L48.1244 61.7411ZM27.4266 44.6338L22.2301 44.6251V42.203L21.6625 41.584L18.9 41.5742L18.265 42.185V51.4363L18.8737 52.0286L21.6327 52.0384L22.2301 51.4492V49.1585L27.4266 49.1734V53.3062L24.3803 56.4455H16.0865L13.0824 53.2754V40.3449L16.1359 37.3048H24.4245L27.4266 40.3449V44.6338ZM44.1782 41.6353V37.3048V37.3043H34.1513V41.6173L34.9631 41.6194L30.7975 52.0425H29.6705L29.6617 56.4454H36.8752V52.0425H36.2762L36.5775 51.2036H41.5751L41.8414 52.0425H41.2162V56.4454H48.4523V52.0425H47.3433L43.2137 41.6312L44.1782 41.6353ZM40.2599 47.5814H37.8675L39.0686 44.5711L40.2599 47.5814ZM65.5184 47.8168V53.3961L62.487 56.446H50.8163V52.098H51.9727V41.6523H50.8575L50.8554 37.3054H62.5251L65.5184 40.4544V45.3073L64.266 46.5633L65.5184 47.8168ZM60.3456 49.3101L59.7127 48.6921L57.1368 48.6911V52.1139L59.7127 52.1175L60.3456 51.5298V49.3101ZM60.3456 42.2785L59.7312 41.6708L57.1368 41.6652V44.4274H59.7204L60.3456 43.8125V42.279V42.2785ZM80.7717 53.4244V41.7278L81.9172 41.7227V37.3048H73.9834V41.7011H75.5922V51.5642L74.9572 52.1545L73.6255 52.1483L73.0091 51.5611L73.0117 48.7933L67.8316 48.7799V53.3961L70.8281 56.4455H77.7285L80.7717 53.4244ZM25.5807 12.548L26.2352 14.4457L28.2357 14.4934L26.6429 15.7135L27.2069 17.6327L25.5807 16.483L23.9457 17.627L24.5081 15.7058L22.9354 14.477L24.9236 14.4457L25.5807 12.548ZM68.7659 14.4342L69.4204 12.5366L70.0775 14.4342L72.0657 14.4655L70.4929 15.6943L71.0549 17.6156L69.4204 16.4715L67.7936 17.6212L68.3582 15.7025L66.7653 14.482L68.7659 14.4342ZM27.6803 20.4854L28.3296 22.382L30.3225 22.4406L28.7199 23.6431L29.305 25.57L27.6525 24.4183L26.0273 25.5551L26.6005 23.6375L25.0242 22.4164L27.0186 22.382L27.6803 20.4854ZM12.4448 22.3728L11.7949 20.4829L11.1327 22.3728L9.14399 22.4124L10.7307 23.634L10.1574 25.5511L11.7903 24.4066L13.413 25.5676L12.8577 23.6376L14.4423 22.4268L12.4448 22.3728ZM59.4355 20.484L58.7789 22.3858L56.7845 22.4294L58.3753 23.6454L57.8092 25.5687L59.4422 24.4113L61.0705 25.5507L60.4895 23.6346L62.0808 22.4156L60.0828 22.375L59.4355 20.484ZM82.6012 22.3728L83.251 20.4829L83.9133 22.3728L85.902 22.4124L84.3153 23.6335L84.8886 25.5511L83.2552 24.4066L81.633 25.5676L82.1883 23.6381L80.6037 22.4273L82.6012 22.3728ZM67.37 20.4906L66.7027 22.3862L64.718 22.4396L66.3078 23.6576L65.7412 25.5752L67.3757 24.4261L69.0184 25.5747L68.4317 23.6535L70.0256 22.4288L68.0245 22.3862L67.37 20.4906ZM20.3879 22.382L19.737 20.4854L19.0784 22.382L17.083 22.4164L18.6604 23.639L18.0846 25.5562L19.7134 24.4183L21.3623 25.57L20.7843 23.6442L22.3813 22.4406L20.3879 22.382ZM43.5522 20.4906L44.2083 22.381L46.2016 22.436L44.6144 23.6601L45.1893 25.5752L43.5368 24.423L41.9085 25.5701L42.491 23.6386L40.9043 22.4195L42.8992 22.3785L43.5522 20.4906ZM36.2817 22.3851L35.6159 20.4906L34.9609 22.3851L32.9588 22.4278L34.5527 23.6535L33.966 25.5742L35.6082 24.4256L37.2442 25.5752L36.6776 23.6571L38.2669 22.4375L36.2817 22.3851ZM75.3079 20.4854L74.657 22.382L72.6636 22.4406L74.2605 23.6442L73.6826 25.57L75.332 24.4183L76.9603 25.5562L76.3845 23.639L77.9619 22.4164L75.9665 22.382L75.3079 20.4854ZM50.8241 22.3851L51.4899 20.4906L52.1449 22.3851L54.147 22.4278L52.5532 23.6535L53.1398 25.5742L51.4976 24.4256L49.8616 25.5752L50.4282 23.6571L48.839 22.438L50.8241 22.3851ZM43.5415 28.4361L44.198 30.3379L46.1924 30.3815L44.6022 31.5975L45.1677 33.5208L43.5348 32.3634L41.907 33.5028L42.4875 31.5867L40.8967 30.3677L42.8947 30.3271L43.5415 28.4361ZM28.4873 30.325L27.8374 28.4356L27.1752 30.325L25.1869 30.3645L26.7731 31.5856L26.1993 33.5033L27.8333 32.3587L29.4554 33.5202L28.9001 31.5903L30.4847 30.3794L28.4873 30.325ZM35.6871 28.4361L36.3437 30.3379L38.3381 30.3815L36.7473 31.5975L37.3134 33.5208L35.6804 32.3634L34.0521 33.5023L34.6331 31.5867L33.0418 30.3677L35.0403 30.3271L35.6871 28.4361ZM20.6371 30.3441L19.981 28.4542L19.3286 30.3415L17.3332 30.3831L18.9203 31.6022L18.3378 33.5337L19.9661 32.3866L21.6186 33.5388L21.0433 31.6237L22.631 30.3996L20.6371 30.3441ZM51.4032 28.4424L52.0659 30.3375L54.0526 30.3904L52.4623 31.6099L53.0289 33.5271L51.3919 32.3774L49.7579 33.526L50.3363 31.6048L48.745 30.3801L50.744 30.3375L51.4032 28.4424ZM12.792 30.3457L12.1386 28.4424L11.4712 30.3457L9.47064 30.3781L11.0707 31.6032L10.4866 33.5199L12.1252 32.3841L13.755 33.5271L13.1951 31.6099L14.7844 30.3986L12.792 30.3457ZM59.257 28.4424L59.9203 30.3375L61.9059 30.3894L60.3167 31.6099L60.8817 33.5271L59.2457 32.3774L57.6128 33.5266L58.1922 31.6053L56.5999 30.3801L58.5994 30.3375L59.257 28.4424ZM67.774 30.3375L67.1108 28.4424L66.4537 30.3375L64.4537 30.3801L66.0465 31.6048L65.4666 33.526L67.0995 32.3774L68.7355 33.5271L68.1705 31.6099L69.7602 30.3894L67.774 30.3375ZM74.9639 28.4424L74.3042 30.3334L72.3129 30.3883L73.8996 31.6125L73.3248 33.5271L74.9767 32.3759L76.6066 33.5214L76.0251 31.5909L77.6102 30.3719L75.6153 30.3308L74.9639 28.4424ZM82.1514 30.3457L82.8049 28.4424L83.4722 30.3457L85.4728 30.3775L83.8727 31.6032L84.4568 33.5199L82.8182 32.3841L81.1884 33.5271L81.7483 31.6099L80.159 30.3986L82.1514 30.3457Z" fill="#F9BE3D"/>
</svg>
